<?xml version="1.0" encoding="utf-8"?>
<!-- Generator: Adobe Illustrator 18.0.0, SVG Export Plug-In . SVG Version: 6.00 Build 0)  -->
<!DOCTYPE svg PUBLIC "-//W3C//DTD SVG 1.1//EN" "http://www.w3.org/Graphics/SVG/1.1/DTD/svg11.dtd">
<svg version="1.1" id="Слой_1" xmlns="http://www.w3.org/2000/svg" xmlns:xlink="http://www.w3.org/1999/xlink" x="0px" y="0px"
	 viewBox="-36 174 850 771" enable-background="new -36 174 850 771" xml:space="preserve">
<path fill="#000000"      d="
	M754.9,640.7c0,0-33.1,3.7-73.3-6.9c-4.4-50.3-4.3-166.8,52.6-355.1c0-0.1,0-0.1,0.1-0.2c0.1-0.2,0.1-0.4,0.2-0.6l0,0
	c0.5-1.9,0.8-3.7,0.9-5.6c1.2-45.8-138.5-86.7-312-91.3S108.2,210,107,255.8c-0.1,2.8,0.4,6.3,1.3,8.6h0c0,0,23.3,146.7,17.6,287.1
	C79.3,557.2,17.7,579-13.5,651.3c0,0-60.1,152.8,81,233.9c0,0,152.9,79.7,335.9,44.4c0,0,262.7-45.8,401.2-249.6
	C804.6,679.9,828.1,645.9,754.9,640.7z"/>
</svg>
